<svg xmlns="http://www.w3.org/2000/svg" xmlns:xlink="http://www.w3.org/1999/xlink" width="2000" zoomAndPan="magnify" viewBox="0 0 1500 1499.999933" height="2000" preserveAspectRatio="xMidYMid meet" version="1.0"><defs><clipPath id="3fbc67bc72"><path d="M 55.640625 150 L 1178.539062 150 L 1178.539062 1269.070312 L 55.640625 1269.070312 Z M 55.640625 150 " clip-rule="nonzero"/></clipPath><clipPath id="e1923976e2"><path d="M 0.640625 0 L 1123.539062 0 L 1123.539062 1119.070312 L 0.640625 1119.070312 Z M 0.640625 0 " clip-rule="nonzero"/></clipPath><clipPath id="c5544fff14"><rect x="0" width="1124" y="0" height="1120"/></clipPath><clipPath id="1e06fd2dca"><path d="M 617.089844 532.089844 L 1398.566406 532.089844 L 1398.566406 1350.855469 L 617.089844 1350.855469 Z M 617.089844 532.089844 " clip-rule="nonzero"/></clipPath><clipPath id="ba72bed50e"><path d="M 0.0898438 0.0898438 L 781.566406 0.0898438 L 781.566406 818.855469 L 0.0898438 818.855469 Z M 0.0898438 0.0898438 " clip-rule="nonzero"/></clipPath><clipPath id="512dec267d"><rect x="0" width="782" y="0" height="819"/></clipPath><clipPath id="5f9edaf212"><path d="M 351.410156 457.898438 L 882.773438 457.898438 L 882.773438 989.261719 L 351.410156 989.261719 Z M 351.410156 457.898438 " clip-rule="nonzero"/></clipPath><clipPath id="b7438780db"><path d="M 0.410156 0.898438 L 531.773438 0.898438 L 531.773438 532.261719 L 0.410156 532.261719 Z M 0.410156 0.898438 " clip-rule="nonzero"/></clipPath><clipPath id="327126137c"><rect x="0" width="532" y="0" height="533"/></clipPath><clipPath id="bd722cc792"><path d="M 662.882812 564.449219 L 1444.359375 564.449219 L 1444.359375 1343.261719 L 662.882812 1343.261719 Z M 662.882812 564.449219 " clip-rule="nonzero"/></clipPath><clipPath id="b0aac53cc4"><path d="M 0.882812 0.449219 L 782.359375 0.449219 L 782.359375 779.261719 L 0.882812 779.261719 Z M 0.882812 0.449219 " clip-rule="nonzero"/></clipPath><clipPath id="e7afddd030"><rect x="0" width="783" y="0" height="780"/></clipPath><clipPath id="3b9a70dbda"><path d="M 901.667969 801.902344 L 1205.574219 801.902344 L 1205.574219 1105.808594 L 901.667969 1105.808594 Z M 901.667969 801.902344 " clip-rule="nonzero"/></clipPath><clipPath id="9451b14b37"><path d="M 0.667969 0.902344 L 304.574219 0.902344 L 304.574219 304.808594 L 0.667969 304.808594 Z M 0.667969 0.902344 " clip-rule="nonzero"/></clipPath><clipPath id="501c319b38"><rect x="0" width="305" y="0" height="305"/></clipPath></defs><g clip-path="url(#3fbc67bc72)"><g transform="matrix(1, 0, 0, 1, 55, 150)"><g clip-path="url(#c5544fff14)"><g clip-path="url(#e1923976e2)"><path fill="#000000" d="M 0.640625 0 L 1124.082031 0 L 1124.082031 1119.070312 L 0.640625 1119.070312 Z M 0.640625 0 " fill-opacity="1" fill-rule="nonzero"/></g></g></g></g><g clip-path="url(#1e06fd2dca)"><g transform="matrix(1, 0, 0, 1, 617, 532)"><g clip-path="url(#512dec267d)"><g clip-path="url(#ba72bed50e)"><path fill="#ffffff" d="M 0.0898438 0.0898438 L 781.566406 0.0898438 L 781.566406 818.195312 L 0.0898438 818.195312 Z M 0.0898438 0.0898438 " fill-opacity="1" fill-rule="nonzero"/></g></g></g></g><g clip-path="url(#5f9edaf212)"><g transform="matrix(1, 0, 0, 1, 351, 457)"><g clip-path="url(#327126137c)"><g clip-path="url(#b7438780db)"><path fill="#ffffff" d="M 0.410156 0.898438 L 531.773438 0.898438 L 531.773438 532.261719 L 0.410156 532.261719 Z M 0.410156 0.898438 " fill-opacity="1" fill-rule="nonzero"/></g></g></g></g><g clip-path="url(#bd722cc792)"><g transform="matrix(1, 0, 0, 1, 662, 564)"><g clip-path="url(#e7afddd030)"><g clip-path="url(#b0aac53cc4)"><path fill="#d4451f" d="M 0.882812 0.449219 L 782.738281 0.449219 L 782.738281 779.261719 L 0.882812 779.261719 Z M 0.882812 0.449219 " fill-opacity="1" fill-rule="nonzero"/></g></g></g></g><g clip-path="url(#3b9a70dbda)"><g transform="matrix(1, 0, 0, 1, 901, 801)"><g clip-path="url(#501c319b38)"><g clip-path="url(#9451b14b37)"><path fill="#ffffff" d="M 0.667969 0.902344 L 304.574219 0.902344 L 304.574219 304.808594 L 0.667969 304.808594 Z M 0.667969 0.902344 " fill-opacity="1" fill-rule="nonzero"/></g></g></g></g></svg>